<?xml version="1.0" encoding="UTF-8" standalone="no"?>
<!-- Created with Inkscape (http://www.inkscape.org/) -->

<svg
   xmlns:dc="http://purl.org/dc/elements/1.1/"
   xmlns:cc="http://creativecommons.org/ns#"
   xmlns:rdf="http://www.w3.org/1999/02/22-rdf-syntax-ns#"
   xmlns:svg="http://www.w3.org/2000/svg"
   xmlns="http://www.w3.org/2000/svg"
   xmlns:sodipodi="http://sodipodi.sourceforge.net/DTD/sodipodi-0.dtd"
   xmlns:inkscape="http://www.inkscape.org/namespaces/inkscape"
   width="210mm"
   height="297mm"
   viewBox="0 0 744.09448819 1052.3622047"
   id="svg2"
   version="1.1"
   inkscape:version="0.91 r13725"
   sodipodi:docname="logoBoT2.svg"
   inkscape:export-filename="/home/renaudbernard/sites/projets/SIMPLON-P2-S01-Wordpress/img/logoBoT2.svg.png"
   inkscape:export-xdpi="90.000076"
   inkscape:export-ydpi="90.000076">
  <defs
     id="defs4" />
  <sodipodi:namedview
     id="base"
     pagecolor="#ffffff"
     bordercolor="#666666"
     borderopacity="1.0"
     inkscape:pageopacity="0.0"
     inkscape:pageshadow="2"
     inkscape:zoom="1.859375"
     inkscape:cx="248.52221"
     inkscape:cy="976.37167"
     inkscape:document-units="px"
     inkscape:current-layer="layer2"
     showgrid="false"
     inkscape:window-width="1600"
     inkscape:window-height="827"
     inkscape:window-x="0"
     inkscape:window-y="0"
     inkscape:window-maximized="1" />
  <metadata
     id="metadata7">
    <rdf:RDF>
      <cc:Work
         rdf:about="">
        <dc:format>image/svg+xml</dc:format>
        <dc:type
           rdf:resource="http://purl.org/dc/dcmitype/StillImage" />
        <dc:title />
      </cc:Work>
    </rdf:RDF>
  </metadata>
  <g
     inkscape:label="Layer 1"
     inkscape:groupmode="layer"
     id="layer1">
    <circle
       style="opacity:0.3;fill:#04ff00;fill-opacity:1;stroke:#ffffff;stroke-width:2.59149551;stroke-miterlimit:4;stroke-dasharray:none;stroke-opacity:1"
       id="path4174"
       cx="35.010159"
       cy="37.194672"
       inkscape:export-xdpi="220.16"
       inkscape:export-ydpi="220.16"
       r="33.70425" />
  </g>
  <g
     inkscape:groupmode="layer"
     id="layer2"
     inkscape:label="Layer 2"
     style="display:inline">
    <path
       style="font-style:normal;font-variant:normal;font-weight:normal;font-stretch:normal;font-size:40px;line-height:125%;font-family:sans-serif;-inkscape-font-specification:sans-serif;letter-spacing:0px;word-spacing:0px;fill:#ff0000;fill-opacity:1;stroke:#ffffff;stroke-width:2.19808745;stroke-linecap:butt;stroke-linejoin:miter;stroke-miterlimit:4;stroke-dasharray:none;stroke-opacity:1"
       d="m 16.922895,53.519875 c 0,-10.836234 0,-21.672467 0,-32.5087 4.722524,0.03288 9.448536,-0.06803 14.168696,0.05556 3.608496,0.11769 7.241495,2.638732 7.872516,6.451089 0.670108,3.182221 -0.528604,6.86664 -3.440239,8.423084 -1.671916,0.767814 2.135977,1.31932 2.682801,2.503094 3.059028,2.825242 2.880684,8.021807 0.683787,11.321242 -1.855447,2.949655 -5.411754,3.96804 -8.653912,3.754918 -4.437883,0 -8.875765,0 -13.313649,0 z m 4.020719,-18.507978 c 3.306786,-0.06349 6.628528,0.15227 9.922514,-0.162248 2.319848,-0.191953 4.26422,-2.272636 4.20671,-4.695456 0.284706,-2.480951 -1.443139,-4.970473 -3.900114,-5.26405 -3.040156,-0.408737 -6.123583,-0.146034 -9.184384,-0.220865 -1.004694,-0.268486 -1.20396,0.291842 -1.044726,1.220996 0,3.040564 0,6.081127 0,9.12168 z m 15.532672,9.275775 c 0.200719,-2.538299 -1.524209,-4.971448 -3.981372,-5.422091 -2.603659,-0.376877 -5.255665,-0.12007 -7.881727,-0.195695 -1.22319,0 -2.446381,0 -3.669573,0 0,3.730633 0,7.461254 0,11.191897 3.614806,-0.03175 7.234049,0.06576 10.845775,-0.05556 2.754476,-0.128687 4.804566,-2.753756 4.686897,-5.519043 z"
       id="text4136"
       inkscape:connector-curvature="0" />
    <path
       style="font-style:normal;font-variant:normal;font-weight:normal;font-stretch:normal;font-size:40px;line-height:125%;font-family:sans-serif;-inkscape-font-specification:sans-serif;letter-spacing:0px;word-spacing:0px;fill:#ffbf00;fill-opacity:1;stroke:#ffffff;stroke-width:2.19808745;stroke-linecap:butt;stroke-linejoin:miter;stroke-miterlimit:4;stroke-dasharray:none;stroke-opacity:1"
       d="m 40.705387,33.625217 c 3.530682,-0.154764 7.203448,1.66436 8.734151,5.052266 1.943286,4.103269 2.056943,9.039614 0.746195,13.358647 -1.255692,4.082441 -5.308412,6.848397 -9.438024,6.651058 -3.626699,0.170524 -7.32264,-1.831178 -8.824419,-5.312894 -1.816313,-4.065514 -1.856349,-8.885326 -0.568141,-13.11701 1.263737,-4.078825 5.221433,-6.792115 9.350238,-6.632067 z m 0.04232,3.440299 c -2.995684,-0.195922 -5.421262,2.351991 -6.0324,5.214898 -0.757493,3.419471 -0.780019,7.360742 1.136117,10.3966 2.241225,3.557489 8.142001,3.418133 10.046178,-0.430847 1.75352,-3.244705 1.691988,-7.280161 0.687425,-10.760903 -0.783721,-2.592834 -3.133414,-4.548787 -5.83732,-4.419714 z"
       id="text4136-9"
       inkscape:connector-curvature="0" />
    <path
       style="font-style:normal;font-variant:normal;font-weight:normal;font-stretch:normal;font-size:40px;line-height:125%;font-family:sans-serif;-inkscape-font-specification:sans-serif;letter-spacing:0px;word-spacing:0px;fill:#761663;fill-opacity:1;stroke:#ffffff;stroke-width:2.19808745;stroke-linecap:butt;stroke-linejoin:miter;stroke-miterlimit:4;stroke-dasharray:none;stroke-opacity:1"
       d="m 44.376743,24.55355 c 0,9.616881 0,19.233762 0,28.850642 -1.340234,0 -2.680474,0 -4.020718,0 0,-9.61688 0,-19.233761 0,-28.850642 -3.470516,0 -6.941029,0 -10.411545,0 0,-1.219352 0,-2.438694 0,-3.658046 8.260109,0 16.520218,0 24.780327,0 0,1.219352 0,2.438694 0,3.658046 -3.449354,0 -6.898703,0 -10.348064,0 z"
       id="text4136-3"
       inkscape:connector-curvature="0" />
    <text
       xml:space="preserve"
       style="font-style:normal;font-weight:normal;font-size:40px;line-height:125%;font-family:sans-serif;letter-spacing:0px;word-spacing:0px;fill:#000000;fill-opacity:1;stroke:none;stroke-width:1px;stroke-linecap:butt;stroke-linejoin:miter;stroke-opacity:1"
       x="73.142853"
       y="55.252972"
       id="text4138"
       sodipodi:linespacing="125%"><tspan
         sodipodi:role="line"
         id="tspan4140"
         x="73.142853"
         y="55.252972"
         style="font-size:50px">Blog of Teck</tspan></text>
  </g>
</svg>
