<?xml version="1.0" encoding="UTF-8" standalone="no"?>
<!-- Created with Inkscape (http://www.inkscape.org/) -->

<svg
   xmlns:dc="http://purl.org/dc/elements/1.1/"
   xmlns:cc="http://creativecommons.org/ns#"
   xmlns:rdf="http://www.w3.org/1999/02/22-rdf-syntax-ns#"
   xmlns:svg="http://www.w3.org/2000/svg"
   xmlns="http://www.w3.org/2000/svg"
   xmlns:sodipodi="http://sodipodi.sourceforge.net/DTD/sodipodi-0.dtd"
   xmlns:inkscape="http://www.inkscape.org/namespaces/inkscape"
   width="210mm"
   height="297mm"
   viewBox="0 0 744.09448819 1052.3622047"
   id="svg2"
   version="1.1"
   inkscape:version="0.91 r13725"
   sodipodi:docname="logoBoT.svg">
  <defs
     id="defs4" />
  <sodipodi:namedview
     id="base"
     pagecolor="#ffffff"
     bordercolor="#666666"
     borderopacity="1.0"
     inkscape:pageopacity="0.0"
     inkscape:pageshadow="2"
     inkscape:zoom="1.979899"
     inkscape:cx="168.11679"
     inkscape:cy="925.83272"
     inkscape:document-units="px"
     inkscape:current-layer="layer1"
     showgrid="false"
     inkscape:window-width="1600"
     inkscape:window-height="817"
     inkscape:window-x="0"
     inkscape:window-y="30"
     inkscape:window-maximized="1" />
  <metadata
     id="metadata7">
    <rdf:RDF>
      <cc:Work
         rdf:about="">
        <dc:format>image/svg+xml</dc:format>
        <dc:type
           rdf:resource="http://purl.org/dc/dcmitype/StillImage" />
        <dc:title></dc:title>
      </cc:Work>
    </rdf:RDF>
  </metadata>
  <g
     inkscape:label="Layer 1"
     inkscape:groupmode="layer"
     id="layer1">
    <circle
       style="opacity:0.3;fill:#04ff00;fill-opacity:1;stroke:#ffffff;stroke-width:8.99328136;stroke-miterlimit:4;stroke-dasharray:none;stroke-opacity:1"
       id="path4174"
       cx="121.47085"
       cy="121.75918"
       r="116.96405"
       inkscape:export-xdpi="220.16"
       inkscape:export-ydpi="220.16" />
  </g>
  <g
     inkscape:groupmode="layer"
     id="layer2"
     inkscape:label="Layer 2"
     style="display:inline">
    <path
       style="font-style:normal;font-variant:normal;font-weight:normal;font-stretch:normal;font-size:40px;line-height:125%;font-family:sans-serif;-inkscape-font-specification:sans-serif;letter-spacing:0px;word-spacing:0px;fill:#ff0000;fill-opacity:1;stroke:#ffffff;stroke-width:7.45906544;stroke-linecap:butt;stroke-linejoin:miter;stroke-miterlimit:4;stroke-dasharray:none;stroke-opacity:1"
       d="m 59.351703,172.66225 c 0,-36.25128 0,-72.50253 0,-108.753771 16.255806,0.108529 32.523617,-0.22601 48.771287,0.184985 12.42111,0.393876 24.92657,8.827542 27.09866,21.581276 2.30664,10.645727 -1.81955,22.9715 -11.84194,28.17837 -5.75504,2.56883 7.35243,4.41364 9.2347,8.37381 10.52974,9.45146 9.91585,26.83593 2.35372,37.87374 -6.38679,9.86775 -18.62826,13.2746 -29.78837,12.56163 -15.27602,0 -30.552037,0 -45.828057,0 z m 13.840064,-61.9161 c 11.382571,-0.2137 22.816628,0.50938 34.155133,-0.54291 7.98535,-0.64215 14.67824,-7.6028 14.48028,-15.708043 0.98001,-8.299702 -4.96755,-16.628122 -13.42492,-17.610219 -10.464779,-1.367284 -21.078503,-0.488532 -31.614354,-0.73897 -3.458344,-0.898072 -4.144253,0.97628 -3.596139,4.084696 0,10.171816 0,20.343636 0,30.515446 z m 53.466343,31.03091 c 0.69091,-8.49155 -5.24661,-16.63133 -13.70462,-18.13892 -8.96228,-1.26077 -18.090975,-0.40175 -27.13037,-0.65446 -4.210448,0 -8.420901,0 -12.631353,0 0,12.48036 0,24.96068 0,37.44104 12.442833,-0.10443 24.900945,0.22042 37.333173,-0.18424 9.48142,-0.43035 16.53821,-9.21236 16.13317,-18.46327 z"
       id="text4136"
       inkscape:connector-curvature="0" />
    <path
       style="font-style:normal;font-variant:normal;font-weight:normal;font-stretch:normal;font-size:40px;line-height:125%;font-family:sans-serif;-inkscape-font-specification:sans-serif;letter-spacing:0px;word-spacing:0px;fill:#ffbf00;fill-opacity:1;stroke:#ffffff;stroke-width:7.45906544;stroke-linecap:butt;stroke-linejoin:miter;stroke-miterlimit:4;stroke-dasharray:none;stroke-opacity:1"
       d="m 141.21546,106.10716 c 12.15326,-0.51766 24.79559,5.56793 30.06458,16.90172 6.68914,13.72699 7.08038,30.24091 2.56854,44.68968 -4.32233,13.65729 -18.27254,22.91045 -32.48744,22.25025 -12.48377,0.57065 -25.20589,-6.12595 -30.37529,-17.77358 -6.25209,-13.60067 -6.3899,-29.72475 -1.95565,-43.88131 4.35002,-13.6452 17.97315,-22.72217 32.18526,-22.18676 z m 0.14568,11.50908 c -10.31171,-0.65532 -18.661,7.8683 -20.76465,17.44578 -2.60743,11.43945 -2.68497,24.62443 3.91073,34.78054 7.71471,11.90113 28.02627,11.43493 34.58081,-1.44146 6.03594,-10.85473 5.82413,-24.35486 2.36623,-35.99924 -2.69771,-8.674 -10.78578,-15.21739 -20.09312,-14.78562 z"
       id="text4136-9"
       inkscape:connector-curvature="0" />
    <path
       style="font-style:normal;font-variant:normal;font-weight:normal;font-stretch:normal;font-size:40px;line-height:125%;font-family:sans-serif;-inkscape-font-specification:sans-serif;letter-spacing:0px;word-spacing:0px;fill:#761663;fill-opacity:1;stroke:#ffffff;stroke-width:7.45906544;stroke-linecap:butt;stroke-linejoin:miter;stroke-miterlimit:4;stroke-dasharray:none;stroke-opacity:1"
       d="m 153.85296,75.759052 c 0,32.172058 0,64.344128 0,96.516198 -4.61335,0 -9.22671,0 -13.84007,0 0,-32.17207 0,-64.34414 0,-96.516198 -11.94616,0 -23.89231,0 -35.83847,0 0,-4.079177 0,-8.158353 0,-12.237529 28.43283,0 56.86566,0 85.29849,0 0,4.079176 0,8.158352 0,12.237529 -11.87332,0 -23.74663,0 -35.61995,0 z"
       id="text4136-3"
       inkscape:connector-curvature="0" />
  </g>
</svg>
